<svg width="448" height="86" viewBox="0 0 448 86" fill="none" xmlns="http://www.w3.org/2000/svg">
<path d="M316.736 59.248L286.832 9.68799L256.928 59.248H316.736Z" fill="#313E49"/>
<path d="M179.48 59.248H185.136V2.68799H179.48V59.248Z" fill="#5397D1"/>
<path d="M80.192 59.248H85.848V2.68799H80.192V59.248Z" fill="#5397D1"/>
<path d="M322.728 59.248L286.832 0L250.936 59.248H256.928L286.832 9.688L316.736 59.248H322.728Z" fill="#5397D1"/>
<path d="M330.4 59.248H378.672V53.592H336.056V2.68799H330.4V59.248Z" fill="#5397D1"/>
<path d="M286.832 41.608C289.128 41.608 290.92 39.76 290.92 37.52C290.92 35.224 289.072 33.432 286.832 33.432C284.536 33.432 282.744 35.28 282.744 37.52C282.744 39.76 284.536 41.608 286.832 41.608Z" fill="#5397D1"/>
<path d="M398.496 8.34398H444.864V2.68799H398.44C389.872 2.74399 382.928 9.68798 382.928 18.256C382.928 26.824 389.872 33.768 398.44 33.824H398.496H432.432C437.92 33.824 442.344 38.248 442.344 43.736C442.344 49.224 437.92 53.648 432.432 53.648H386.064V59.304H432.432H432.488C441.056 59.248 448 52.304 448 43.736C448 35.168 441.056 28.224 432.488 28.168H398.496C393.008 28.168 388.584 23.744 388.584 18.256C388.584 12.768 393.008 8.34398 398.496 8.34398Z" fill="#5397D1"/>
<path d="M165.2 44.016V33.824V28.728V28.168H140.56V33.824H159.544V43.736C159.544 49.224 155.12 53.648 149.632 53.648H115.696C110.208 53.648 105.784 49.224 105.784 43.736V18.256C105.784 12.768 110.208 8.34398 115.696 8.34398H165.2V2.68799H115.696C107.184 2.68799 100.296 9.51998 100.128 17.976V44.016C100.296 52.472 107.184 59.304 115.696 59.304H149.632C158.144 59.248 165.032 52.472 165.2 44.016Z" fill="#5397D1"/>
<path d="M49.504 8.34398H0V2.68799H49.504C58.016 2.68799 64.904 9.51998 65.072 17.976V44.016C64.904 52.472 58.016 59.304 49.504 59.304H0V53.592H49.504C54.992 53.592 59.416 49.168 59.416 43.68V18.2C59.416 12.768 54.992 8.34398 49.504 8.34398Z" fill="#5397D1"/>
<path d="M225.736 59.248H231.392V8.34398H261.072V2.68799H196V8.34398H225.736V59.248Z" fill="#5397D1"/>
<path d="M179.368 72.3519H196.952V73.6959H180.936V78.0639H195.72V79.4079H180.936V85.1199H179.368V72.3519Z" fill="#313E49"/>
<path d="M209.72 84.6719C209.048 84.3359 208.544 83.8879 208.152 83.2719C207.76 82.6559 207.592 81.9839 207.592 81.1439V76.4959C207.592 75.6559 207.76 74.9279 208.152 74.3119C208.544 73.6959 209.048 73.1919 209.664 72.8559C210.336 72.5199 211.064 72.3519 211.848 72.3519H222.04C222.824 72.3519 223.552 72.5199 224.224 72.8559C224.896 73.1919 225.4 73.6959 225.792 74.3119C226.184 74.9279 226.352 75.6559 226.352 76.4959V81.1439C226.352 81.9839 226.184 82.6559 225.792 83.2719C225.4 83.8879 224.896 84.3359 224.224 84.6719C223.552 85.0079 222.824 85.1759 222.04 85.1759H211.96C211.064 85.1759 210.336 85.0079 209.72 84.6719ZM223.944 82.9919C224.448 82.4879 224.728 81.7039 224.728 80.6959V76.8319C224.728 75.8239 224.448 75.0959 223.888 74.5359C223.328 73.9759 222.544 73.6959 221.48 73.6959H212.352C211.232 73.6959 210.392 73.9759 209.888 74.5919C209.384 75.2079 209.104 75.9359 209.104 76.8319V80.6959C209.104 81.6479 209.384 82.4319 209.944 82.9919C210.504 83.5519 211.232 83.8319 212.184 83.8319H221.648C222.656 83.7759 223.44 83.5519 223.944 82.9919Z" fill="#313E49"/>
<path d="M237.664 72.3519H252.896C253.512 72.3519 254.072 72.5199 254.632 72.8559C255.192 73.1919 255.64 73.5839 255.976 74.1439C256.312 74.7039 256.48 75.2639 256.48 75.8799V76.2159C256.48 76.9439 256.312 77.5599 255.976 78.1199C255.64 78.6799 255.192 79.1279 254.632 79.4639C254.072 79.7999 253.4 79.9679 252.728 79.9679H239.232V85.2319H237.664V72.3519ZM254.296 77.8399C254.744 77.3919 254.912 76.8319 254.912 76.2159V75.9919C254.912 75.5439 254.8 75.1519 254.576 74.8159C254.352 74.4799 254.072 74.1999 253.736 73.9759C253.4 73.7519 253.008 73.6959 252.56 73.6959H239.232V78.5119H252.56C253.288 78.5119 253.848 78.2879 254.296 77.8399ZM250.32 79.2399L252.112 79.1279L256.816 85.1199H254.968L250.32 79.2399Z" fill="#313E49"/>
<path d="M286.944 72.3519H288.512V78.0079H303.576V72.3519H305.144V85.1759H303.576V79.4079H288.512V85.1759H286.944V72.3519Z" fill="#313E49"/>
<path d="M316.736 72.3519H334.376V73.6959H318.304V77.8959H333.032V79.2399H318.304V83.7759H334.376V85.1199H316.736V72.3519Z" fill="#313E49"/>
<path d="M352.352 72.3519H353.528L362.264 85.1759H360.528L352.688 73.6959H353.136L345.296 85.1759H343.56L352.352 72.3519ZM347.032 80.9199H358.848L359.576 82.2639H346.304L347.032 80.9199Z" fill="#313E49"/>
<path d="M372.904 72.3519H374.472V83.8319H390.544V85.1759H372.904V72.3519Z" fill="#313E49"/>
<path d="M403.928 73.6959H395.472V72.3519H413.952V73.6959H405.552V85.1759H403.984V73.6959H403.928Z" fill="#313E49"/>
<path d="M424.704 72.3519H426.272V78.0079H441.336V72.3519H442.904V85.1759H441.336V79.4079H426.272V85.1759H424.704V72.3519Z" fill="#313E49"/>
</svg>
