<svg width="448" height="86" viewBox="0 0 448 86" fill="none" xmlns="http://www.w3.org/2000/svg">
<g clip-path="url(#clip0_4_149)">
<path d="M316.725 59.2816L286.832 9.6936L256.934 59.2816H316.725Z" fill="#313E49"/>
<path d="M179.458 59.2817H185.114V2.71045H179.458V59.2817Z" fill="#F4792A"/>
<path d="M80.2032 59.2817H85.8592V2.71045H80.2032V59.2817Z" fill="#F4792A"/>
<path d="M322.739 59.2816L286.832 0L250.919 59.2816H256.934L286.832 9.6936L316.725 59.2816H322.739Z" fill="#F4792A"/>
<path d="M330.383 59.2817H378.655V53.6256H336.039V2.71045H330.383V59.2817Z" fill="#F4792A"/>
<path d="M286.832 41.5968C289.1 41.5968 290.942 39.7544 290.942 37.4864C290.942 35.2184 289.1 33.376 286.832 33.376C284.564 33.376 282.722 35.2184 282.722 37.4864C282.722 39.7544 284.564 41.5968 286.832 41.5968Z" fill="#F4792A"/>
<path d="M398.496 8.36645H444.886V2.71045H398.44C389.872 2.74405 382.939 9.69365 382.939 18.2672C382.939 26.8408 389.872 33.7905 398.44 33.8241H398.496H432.443C437.909 33.8241 442.344 38.2593 442.344 43.7249C442.344 49.1905 437.914 53.6256 432.443 53.6256H386.053V59.2817H432.499C441.067 59.2481 448 52.2985 448 43.7249C448 35.1513 441.067 28.2016 432.499 28.168H398.496C393.03 28.168 388.595 23.7328 388.595 18.2672C388.595 12.8016 393.025 8.36645 398.496 8.36645Z" fill="#F4792A"/>
<path d="M165.194 44.0049V28.1624H140.526V33.8184H159.538V43.7192C159.538 49.1848 155.103 53.6201 149.638 53.6201H115.696C110.225 53.6201 105.795 49.1848 105.795 43.7192V18.2616C105.795 12.796 110.225 8.36085 115.696 8.36085H165.2V2.71045H115.696C107.201 2.71045 100.307 9.52565 100.15 17.9872H100.139V44.0104H100.15C100.302 52.472 107.195 59.2872 115.696 59.2872H149.638C158.133 59.2872 165.026 52.472 165.183 44.0104H165.2L165.194 44.0049Z" fill="#F4792A"/>
<path d="M49.504 8.36645H0V2.71045H49.504C57.9992 2.71045 64.8928 9.52565 65.0496 17.9872H65.0664V44.0104H65.0496C64.8984 52.472 58.0048 59.2872 49.504 59.2872H0V53.6312H49.504C54.9696 53.6312 59.4048 49.196 59.4048 43.7304V18.2728C59.4048 12.8072 54.9752 8.37205 49.504 8.37205V8.36645Z" fill="#F4792A"/>
<path d="M225.725 59.2817H231.381V8.36645H261.083V2.71045H196.022V8.36645H225.725V59.2817Z" fill="#F4792A"/>
<path d="M179.357 72.3521H196.941V73.7017H180.93V78.0697H195.714V79.4193H180.93V85.1593H179.357V72.3521Z" fill="#313E49"/>
<path d="M204.792 84.6553C204.131 84.3193 203.605 83.8544 203.218 83.244C202.832 82.6392 202.636 81.9337 202.636 81.1329V76.4961C202.636 75.6673 202.821 74.9393 203.185 74.3121C203.554 73.6849 204.064 73.2033 204.719 72.8617C205.374 72.5201 206.108 72.3521 206.926 72.3521H217.095C217.885 72.3521 218.607 72.5201 219.262 72.8505C219.918 73.1809 220.427 73.6625 220.802 74.2897C221.178 74.9169 221.362 75.6505 221.362 76.4961V81.1329C221.362 81.9505 221.178 82.6617 220.802 83.2665C220.427 83.8713 219.912 84.3361 219.262 84.6665C218.607 84.9913 217.874 85.1593 217.056 85.1593H206.965C206.175 85.1593 205.453 84.9912 204.792 84.6608V84.6553ZM219.038 83.0089C219.554 82.4769 219.817 81.7097 219.817 80.7017V76.8208C219.817 75.8408 219.542 75.0737 218.999 74.5249C218.456 73.9761 217.644 73.6961 216.569 73.6961H207.441C206.326 73.6961 205.503 73.9929 204.982 74.5865C204.462 75.1801 204.198 75.9248 204.198 76.8208V80.7017C204.198 81.6705 204.484 82.4264 205.055 82.9808C205.626 83.5352 206.371 83.8097 207.284 83.8097H216.737C217.756 83.8097 218.529 83.5465 219.044 83.0145L219.038 83.0089Z" fill="#313E49"/>
<path d="M227.881 72.3521H243.118C243.718 72.3521 244.289 72.5145 244.832 72.8337C245.375 73.1529 245.818 73.5841 246.148 74.1217C246.484 74.6593 246.646 75.2361 246.646 75.8465V76.1937C246.646 76.8993 246.484 77.5377 246.165 78.0921C245.846 78.6521 245.398 79.0889 244.826 79.4081C244.255 79.7273 243.622 79.8897 242.928 79.8897H229.449V85.1593H227.875V72.3521H227.881ZM244.474 77.8345C244.905 77.3641 245.118 76.8153 245.118 76.1881V76.0256C245.118 75.5888 245.011 75.1913 244.793 74.8329C244.574 74.4745 244.283 74.1945 243.925 73.9929C243.566 73.7969 243.18 73.6961 242.771 73.6961H229.454V78.5345H242.771C243.477 78.5345 244.048 78.2993 244.474 77.8289V77.8345ZM240.503 79.2737L242.278 79.1729L246.977 85.1593H245.118L240.503 79.2793V79.2737Z" fill="#313E49"/>
<path d="M267.333 72.3521H282.794C283.422 72.3521 283.976 72.4865 284.469 72.7497C284.962 73.0129 285.342 73.3769 285.611 73.8305C285.886 74.2897 286.02 74.7937 286.02 75.3537V75.6785C286.02 76.1825 285.891 76.6641 285.645 77.1177C285.393 77.5713 285.074 77.9465 284.693 78.2321C284.312 78.5177 283.937 78.6801 283.573 78.7249L283.595 78.5401C283.937 78.5681 284.301 78.7249 284.687 79.0105C285.074 79.2961 285.404 79.6657 285.667 80.1249C285.93 80.5785 286.065 81.0824 286.065 81.6256V82.0569C286.065 82.6001 285.919 83.1097 285.628 83.5913C285.337 84.0673 284.939 84.4481 284.441 84.7337C283.942 85.0193 283.41 85.1649 282.839 85.1649H267.338V72.3577L267.333 72.3521ZM283.142 77.6329C283.539 77.4201 283.853 77.1513 284.094 76.8153C284.329 76.4849 284.452 76.1432 284.452 75.8072V75.4993C284.452 74.9953 284.239 74.5696 283.819 74.2224C283.399 73.8752 282.884 73.7017 282.285 73.7017H268.906V77.9465H281.915C282.335 77.9465 282.744 77.84 283.142 77.6272V77.6329ZM283.909 83.2497C284.312 82.8745 284.514 82.4041 284.514 81.8329V81.4633C284.514 81.0937 284.39 80.7465 284.144 80.4105C283.898 80.0745 283.584 79.8056 283.192 79.604C282.806 79.3968 282.408 79.2961 281.999 79.2961H268.906V83.8097H282.346C282.985 83.8097 283.506 83.6249 283.909 83.2497Z" fill="#313E49"/>
<path d="M294.734 84.6553C294.073 84.3193 293.546 83.8544 293.16 83.244C292.774 82.6392 292.578 81.9337 292.578 81.1329V72.3521H294.129V80.7072C294.129 81.676 294.414 82.4321 294.986 82.9865C295.557 83.5353 296.302 83.8153 297.214 83.8153H306.667C307.703 83.8153 308.482 83.5521 309.002 83.0201C309.523 82.4881 309.786 81.7209 309.786 80.7129V72.3577H311.276V81.1385C311.276 81.9561 311.091 82.6673 310.716 83.2721C310.341 83.8769 309.831 84.3417 309.182 84.6721C308.538 84.9969 307.804 85.1649 306.986 85.1649H296.901C296.111 85.1649 295.383 84.9969 294.728 84.6665L294.734 84.6553Z" fill="#313E49"/>
<path d="M318.102 83.8097H332.786C333.491 83.8097 334.034 83.6641 334.41 83.3729C334.785 83.0817 334.97 82.6729 334.97 82.1577V81.6256C334.97 81.2728 334.824 80.9537 334.533 80.6681C334.242 80.3825 333.861 80.2145 333.402 80.1585C333.374 80.1585 333.357 80.1584 333.351 80.1472C333.346 80.1416 333.329 80.1361 333.301 80.1361L320.785 78.9713C320.65 78.9433 320.505 78.9265 320.354 78.9097C319.592 78.7585 318.976 78.4449 318.506 77.9689C318.035 77.4929 317.8 76.9161 317.8 76.2329V75.2305C317.8 74.6705 317.946 74.1721 318.231 73.7297C318.517 73.2873 318.903 72.9457 319.396 72.7105C319.889 72.4753 320.426 72.3521 321.009 72.3521H335.692V73.7017H321.317C320.678 73.7017 320.191 73.8641 319.855 74.1945C319.519 74.5193 319.357 74.8889 319.357 75.2977V75.9081C319.357 76.3729 319.514 76.7537 319.827 77.0505C320.141 77.3529 320.555 77.5321 321.07 77.5993H321.11L333.894 78.8033H333.956C334.734 78.8873 335.356 79.1673 335.826 79.6489C336.297 80.1305 336.532 80.7241 336.532 81.4129V82.3705C336.532 82.9137 336.392 83.4008 336.101 83.8208C335.81 84.2408 335.423 84.5712 334.925 84.8008C334.426 85.0304 333.889 85.1481 333.301 85.1481H318.108V83.7985L318.102 83.8097Z" fill="#313E49"/>
<path d="M343.039 72.3521H344.613V85.1593H343.039V72.3521Z" fill="#313E49"/>
<path d="M351.333 72.3521H353.069L369.365 84.1177H368.754V72.3521H370.244V85.1593H368.53L352.251 73.4161H352.822V85.1593H351.333V72.3521Z" fill="#313E49"/>
<path d="M376.958 72.3521H394.604V73.7017H378.532V77.9297H393.238V79.2793H378.532V83.8153H394.604V85.1649H376.958V72.3577V72.3521Z" fill="#313E49"/>
<path d="M400.254 83.8097H414.938C415.643 83.8097 416.186 83.6641 416.562 83.3729C416.937 83.0817 417.122 82.6729 417.122 82.1577V81.6256C417.122 81.2728 416.976 80.9537 416.685 80.6681C416.394 80.3825 416.013 80.2145 415.554 80.1585C415.526 80.1585 415.509 80.1584 415.503 80.1472C415.498 80.1416 415.481 80.1361 415.453 80.1361L402.937 78.9713C402.802 78.9433 402.657 78.9265 402.506 78.9097C401.744 78.7585 401.128 78.4449 400.658 77.9689C400.187 77.4929 399.952 76.9161 399.952 76.2329V75.2305C399.952 74.6705 400.098 74.1721 400.383 73.7297C400.669 73.2873 401.055 72.9457 401.548 72.7105C402.041 72.4753 402.578 72.3521 403.161 72.3521H417.844V73.7017H403.469C402.83 73.7017 402.343 73.8641 402.007 74.1945C401.671 74.5193 401.509 74.8889 401.509 75.2977V75.9081C401.509 76.3729 401.666 76.7537 401.979 77.0505C402.293 77.3529 402.707 77.5321 403.222 77.5993H403.262L416.046 78.8033H416.108C416.886 78.8873 417.508 79.1673 417.978 79.6489C418.449 80.1305 418.684 80.7241 418.684 81.4129V82.3705C418.684 82.9137 418.544 83.4008 418.253 83.8208C417.962 84.2408 417.575 84.5712 417.077 84.8008C416.578 85.0304 416.041 85.1481 415.453 85.1481H400.26V83.7985L400.254 83.8097Z" fill="#313E49"/>
<path d="M424.676 83.8097H439.359C440.065 83.8097 440.608 83.6641 440.983 83.3729C441.358 83.0817 441.543 82.6729 441.543 82.1577V81.6256C441.543 81.2728 441.398 80.9537 441.106 80.6681C440.815 80.3825 440.434 80.2145 439.975 80.1585C439.947 80.1585 439.93 80.1584 439.925 80.1472C439.919 80.1416 439.902 80.1361 439.874 80.1361L427.358 78.9713C427.224 78.9433 427.078 78.9265 426.927 78.9097C426.166 78.7585 425.55 78.4449 425.079 77.9689C424.609 77.4929 424.374 76.9161 424.374 76.2329V75.2305C424.374 74.6705 424.519 74.1721 424.805 73.7297C425.09 73.2873 425.477 72.9457 425.97 72.7105C426.462 72.4753 427 72.3521 427.582 72.3521H442.266V73.7017H427.89C427.252 73.7017 426.765 73.8641 426.429 74.1945C426.093 74.5193 425.93 74.8889 425.93 75.2977V75.9081C425.93 76.3729 426.087 76.7537 426.401 77.0505C426.714 77.3529 427.129 77.5321 427.644 77.5993H427.683L440.468 78.8033H440.53C441.308 78.8873 441.93 79.1673 442.4 79.6489C442.87 80.1305 443.106 80.7241 443.106 81.4129V82.3705C443.106 82.9137 442.966 83.4008 442.674 83.8208C442.383 84.2408 441.997 84.5712 441.498 84.8008C441 85.0304 440.462 85.1481 439.874 85.1481H424.682V83.7985L424.676 83.8097Z" fill="#313E49"/>
</g>
<defs>
<clipPath id="clip0_4_149">
<rect width="448" height="85.1592" fill="white"/>
</clipPath>
</defs>
</svg>
