<svg width="448" height="90" viewBox="0 0 448 90" fill="none" xmlns="http://www.w3.org/2000/svg">
<g clip-path="url(#clip0_4_124)">
<path d="M316.725 64.5746L286.832 10.5591L256.934 64.5746H316.725Z" fill="white"/>
<path d="M179.458 64.5746H185.114V2.95239H179.458V64.5746Z" fill="#EE4E9C"/>
<path d="M80.2032 64.5746H85.8592V2.95239H80.2032V64.5746Z" fill="#EE4E9C"/>
<path d="M322.739 64.5746L286.832 0L250.919 64.5746H256.934L286.832 10.5591L316.725 64.5746H322.739Z" fill="#EE4E9C"/>
<path d="M330.383 64.5746H378.655V58.4136H336.039V2.95239H330.383V64.5746Z" fill="#EE4E9C"/>
<path d="M286.832 45.3108C289.1 45.3108 290.942 43.3039 290.942 40.8334C290.942 38.3629 289.1 36.356 286.832 36.356C284.564 36.356 282.722 38.3629 282.722 40.8334C282.722 43.3039 284.564 45.3108 286.832 45.3108Z" fill="#EE4E9C"/>
<path d="M398.496 9.11339H444.886V2.95239H398.44C389.872 2.98899 382.939 10.5591 382.939 19.8982C382.939 29.2373 389.872 36.8074 398.44 36.844H398.496H432.443C437.909 36.844 442.344 41.6752 442.344 47.6288C442.344 53.5824 437.914 58.4136 432.443 58.4136H386.053V64.5746H432.499C441.067 64.538 448 56.9679 448 47.6288C448 38.2897 441.067 30.7196 432.499 30.683H398.496C393.03 30.683 388.595 25.8518 388.595 19.8982C388.595 13.9446 393.025 9.11339 398.496 9.11339Z" fill="#EE4E9C"/>
<path d="M165.194 47.9399V30.683H140.526V36.844H159.538V47.6288C159.538 53.5824 155.103 58.4136 149.638 58.4136H115.696C110.225 58.4136 105.795 53.5824 105.795 47.6288V19.8982C105.795 13.9446 110.225 9.11339 115.696 9.11339H165.2V2.95239H115.696C107.201 2.95239 100.307 10.3761 100.15 19.5932H100.139V47.9399H100.15C100.302 57.157 107.195 64.5807 115.696 64.5807H149.638C158.133 64.5807 165.026 57.157 165.183 47.9399H165.2H165.194Z" fill="#EE4E9C"/>
<path d="M49.504 9.11339H0V2.95239H49.504C57.9992 2.95239 64.8928 10.3761 65.0496 19.5932H65.0664V47.9399H65.0496C64.8984 57.157 58.0048 64.5807 49.504 64.5807H0V58.4197H49.504C54.9696 58.4197 59.4048 53.5885 59.4048 47.6349V19.9043C59.4048 13.9507 54.9752 9.11949 49.504 9.11949V9.11339Z" fill="#EE4E9C"/>
<path d="M225.725 64.5746H231.381V9.11339H261.083V2.95239H196.022V9.11339H225.725V64.5746Z" fill="#EE4E9C"/>
<path d="M181.311 88.5598C180.65 88.1938 180.13 87.6875 179.738 87.0226C179.351 86.3638 179.155 85.5952 179.155 84.7229V79.6721C179.155 78.7693 179.34 77.9763 179.704 77.2931C180.074 76.6099 180.583 76.0853 181.238 75.7132C181.894 75.3411 182.627 75.1581 183.445 75.1581H193.614C194.404 75.1581 195.126 75.3411 195.782 75.701C196.437 76.0609 196.946 76.5855 197.322 77.2687C197.697 77.9519 197.882 78.751 197.882 79.6721V84.7229C197.882 85.6135 197.697 86.3882 197.322 87.047C196.946 87.7058 196.431 88.2121 195.782 88.572C195.126 88.9258 194.393 89.1088 193.575 89.1088H183.484C182.694 89.1088 181.972 88.9258 181.311 88.5659V88.5598ZM195.558 86.7664C196.073 86.1869 196.336 85.3512 196.336 84.2532V80.0259C196.336 78.9584 196.062 78.1227 195.518 77.5249C194.975 76.9271 194.163 76.6221 193.088 76.6221H183.96C182.846 76.6221 182.022 76.9454 181.502 77.592C180.975 78.2386 180.718 79.0499 180.718 80.0259V84.2532C180.718 85.3085 181.003 86.132 181.574 86.7359C182.146 87.3398 182.89 87.6387 183.803 87.6387H193.256C194.275 87.6387 195.048 87.352 195.563 86.7725L195.558 86.7664Z" fill="white"/>
<path d="M201.538 75.1581H203.274L219.57 87.9681H218.96V75.1581H220.45V89.1088H218.736L202.462 76.3171H203.034V89.1088H201.544V75.1581H201.538Z" fill="white"/>
<path d="M243.202 83.9909L234.276 75.1581H236.359L244.199 82.9417H243.69L251.451 75.1581H253.574L244.731 83.9909V89.1088H243.202V83.9909Z" fill="white"/>
<path d="M257.124 88.5598C256.463 88.1938 255.937 87.6875 255.55 87.0226C255.164 86.3638 254.968 85.5952 254.968 84.7229V79.6721C254.968 78.7693 255.153 77.9763 255.522 77.2931C255.892 76.6099 256.402 76.0853 257.051 75.7132C257.706 75.3411 258.44 75.1581 259.258 75.1581H269.427C270.217 75.1581 270.939 75.3411 271.594 75.701C272.25 76.0609 272.759 76.5855 273.134 77.2687C273.51 77.9519 273.694 78.751 273.694 79.6721V84.7229C273.694 85.6135 273.51 86.3882 273.134 87.047C272.759 87.7058 272.244 88.2121 271.594 88.572C270.939 88.9258 270.206 89.1088 269.388 89.1088H259.297C258.507 89.1088 257.779 88.9258 257.124 88.5659V88.5598ZM271.37 86.7664C271.886 86.1869 272.149 85.3512 272.149 84.2532V80.0259C272.149 78.9584 271.874 78.1227 271.331 77.5249C270.788 76.9271 269.976 76.6221 268.901 76.6221H259.773C258.658 76.6221 257.835 76.9454 257.314 77.592C256.794 78.2386 256.53 79.0499 256.53 80.0259V84.2532C256.53 85.3085 256.816 86.132 257.387 86.7359C257.958 87.3398 258.703 87.6387 259.61 87.6387H269.063C270.082 87.6387 270.855 87.352 271.37 86.7725V86.7664Z" fill="white"/>
<path d="M279.507 88.5598C278.846 88.1938 278.32 87.6875 277.934 87.0226C277.547 86.3638 277.351 85.5952 277.351 84.7229V75.1581H278.902V84.2593C278.902 85.3146 279.188 86.1381 279.759 86.742C280.33 87.3398 281.075 87.6448 281.988 87.6448H291.441C292.477 87.6448 293.255 87.3581 293.782 86.7786C294.308 86.1991 294.566 85.3634 294.566 84.2654V75.1642H296.055V84.729C296.055 85.6196 295.87 86.3943 295.495 87.0531C295.12 87.7119 294.61 88.2182 293.966 88.5781C293.317 88.9319 292.589 89.1149 291.771 89.1149H281.686C280.896 89.1149 280.168 88.9319 279.513 88.572L279.507 88.5598Z" fill="white"/>
<path d="M299.919 75.1581H315.157C315.756 75.1581 316.327 75.335 316.87 75.6827C317.414 76.0304 317.856 76.5001 318.186 77.0857C318.522 77.6713 318.685 78.2996 318.685 78.9645V79.3427C318.685 80.1113 318.522 80.8067 318.203 81.4106C317.884 82.0206 317.436 82.4964 316.865 82.8441C316.294 83.1918 315.661 83.3687 314.966 83.3687H301.487V89.1088H299.914V75.1581H299.919ZM316.512 81.13C316.943 80.6176 317.156 80.0198 317.156 79.3366V79.1597C317.156 78.6839 317.044 78.2508 316.831 77.8604C316.613 77.47 316.322 77.165 315.963 76.9454C315.605 76.7319 315.218 76.6221 314.81 76.6221H301.493V81.8925H314.81C315.515 81.8925 316.086 81.6363 316.512 81.1239V81.13ZM312.542 82.6977L314.317 82.5879L319.015 89.1088H317.156L312.542 82.7038V82.6977Z" fill="white"/>
<path d="M341.314 76.6282H332.842V75.1581H351.305V76.6282H342.894V89.1088H341.32V76.6282H341.314Z" fill="white"/>
<path d="M354.34 75.1581H371.986V76.6282H355.914V81.2337H370.619V82.7038H355.914V87.6448H371.986V89.1149H354.34V75.1642V75.1581Z" fill="white"/>
<path d="M375.032 75.1581H390.27C390.869 75.1581 391.44 75.335 391.983 75.6827C392.526 76.0304 392.969 76.5001 393.299 77.0857C393.635 77.6713 393.798 78.2996 393.798 78.9645V79.3427C393.798 80.1113 393.635 80.8067 393.316 81.4106C392.997 82.0206 392.549 82.4964 391.978 82.8441C391.406 83.1918 390.774 83.3687 390.079 83.3687H376.6V89.1088H375.026V75.1581H375.032ZM391.625 81.13C392.056 80.6176 392.269 80.0198 392.269 79.3366V79.1597C392.269 78.6839 392.157 78.2508 391.944 77.8604C391.726 77.47 391.434 77.165 391.076 76.9454C390.718 76.7319 390.331 76.6221 389.922 76.6221H376.606V81.8925H389.922C390.628 81.8925 391.199 81.6363 391.625 81.1239V81.13ZM387.654 82.6977L389.43 82.5879L394.128 89.1088H392.269L387.654 82.7038V82.6977Z" fill="white"/>
<path d="M397.779 75.1581H399.252L409.808 85.3695H408.789L419.345 75.1581H420.734V89.1088H419.244V76.5184L419.754 76.7868L410.032 86.1991H408.542L398.782 76.7197L399.274 76.5184V89.1088H397.785V75.1581H397.779Z" fill="white"/>
<path d="M424.698 87.6387H439.382C440.087 87.6387 440.63 87.4801 441.006 87.1629C441.381 86.8457 441.566 86.4004 441.566 85.8392V85.2597C441.566 84.8754 441.42 84.5277 441.129 84.2166C440.838 83.9055 440.457 83.7225 439.998 83.6615C439.97 83.6615 439.953 83.6615 439.947 83.6493C439.942 83.6432 439.925 83.6371 439.897 83.6371L427.381 82.3683C427.246 82.3378 427.101 82.3195 426.95 82.3012C426.188 82.1365 425.572 81.7949 425.102 81.2764C424.631 80.7579 424.396 80.1296 424.396 79.3854V78.2935C424.396 77.6835 424.542 77.1406 424.827 76.6587C425.113 76.1768 425.499 75.8047 425.992 75.5485C426.485 75.2923 427.022 75.1581 427.605 75.1581H442.288V76.6282H427.913C427.274 76.6282 426.787 76.8051 426.451 77.165C426.115 77.5188 425.953 77.9214 425.953 78.3667V79.0316C425.953 79.5379 426.11 79.9527 426.423 80.276C426.737 80.5993 427.151 80.8006 427.666 80.8738H427.706L440.49 82.1853H440.552C441.33 82.2768 441.952 82.5818 442.422 83.1064C442.893 83.631 443.128 84.2776 443.128 85.0279V86.071C443.128 86.6627 442.988 87.1934 442.697 87.6509C442.406 88.1084 442.019 88.4683 441.521 88.7184C441.022 88.9685 440.485 89.0966 439.897 89.0966H424.704V87.6265L424.698 87.6387Z" fill="white"/>
</g>
<defs>
<clipPath id="clip0_4_124">
<rect width="448" height="89.1027" fill="white"/>
</clipPath>
</defs>
</svg>
